# AST/ASF file generated using VICON BodyLanguage
# -----------------------------------------------
:version 1.10
:name VICON
:units
  mass 1.0
  length 0.45
  angle deg
:documentation
   .ast/.asf automatically generated from VICON data using
   VICON BodyBuilder and BodyLanguage model FoxedUp or BRILLIANT.MOD
:root
   order TX TY TZ RX RY RZ
   axis XYZ
   position 0 0 0  
   orientation 0 0 0 
:bonedata
  begin
     id 1 
     name lhipjoint
     direction 0.54267 -0.795011 0.271047 
     length 2.39899 
     axis 0 0 0  XYZ
  end
  begin
     id 2 
     name lfemur
     direction 0.34202 -0.939693 0  
     length 7.49701  
     axis 0 0 20  XYZ
    dof rx ry rz
    limits (-160.0 20.0)
           (-70.0 70.0)
           (-60.0 70.0)
  end
  begin
     id 3 
     name ltibia
     direction 0.34202 -0.939693 0   
     length 8.1668   
     axis 0 0 20   XYZ
    dof rx
    limits (-10.0 170.0)
  end
  begin
     id 4 
     name lfoot
     direction 0.0736283 -0.202292 0.976554   
     length 2.13544   
     axis -90 7.62852e-016 20   XYZ
    dof rx rz
    limits (-45.0 90.0)
           (-70.0 20.0)
  end
  begin
     id 5 
     name ltoes
     direction 1.53557e-011 -4.22024e-011 1   
     length 1.07411   
     axis -90 7.62852e-016 20   XYZ
    dof rx
    limits (-90.0 20.0)
  end
  begin
     id 6 
     name rhipjoint
     direction -0.538061 -0.797813 0.272002   
     length 2.39057  
     axis 0 0 0  XYZ 
  end
  begin
     id 7 
     name rfemur
     direction -0.34202 -0.939693 0   
     length 7.50152   
     axis 0 0 -20   XYZ
    dof rx ry rz
    limits (-160.0 20.0)
           (-70.0 70.0)
           (-70.0 60.0)
  end
  begin
     id 8 
     name rtibia
     direction -0.34202 -0.939693 0   
     length 8.05793   
     axis 0 0 -20   XYZ
    dof rx
    limits (-10.0 170.0)
 end
 begin
     id 9 
     name rfoot
     direction -0.0765195 -0.210236 0.974652   
     length 2.28698  
     axis -90 -7.62852e-016 -20   XYZ
    dof rx rz
    limits (-45.0 90.0)
           (-20.0 70.0)
  end
  begin
     id 10 
     name rtoes
     direction -1.53542e-011 -4.21847e-011 1   
     length 1.14762   
     axis -90 -7.62852e-016 -20   XYZ
    dof rx
    limits (-90.0 20.0)
  end
  begin
     id 11 
     name lowerback
     direction -0.0217239 0.996592 -0.0795765   
     length 2.08176   
     axis 0 0 0   XYZ
    dof rx ry rz
    limits (-20.0 45.0)
           (-30.0 30.0)
           (-30.0 30.0)
  end
  begin
     id 12 
     name upperback
     direction -0.00563773 0.999651 -0.0258155   
     length 2.08898   
     axis 0 0 0   XYZ
    dof rx ry rz
    limits (-20.0 45.0)
           (-30.0 30.0)
           (-30.0 30.0)
  end
  begin
     id 13 
     name thorax
     direction 0.0032706 0.999923 0.0119599   
     length 2.0968   
     axis 0 0 0   XYZ
    dof rx ry rz
    limits (-20.0 45.0)
           (-30.0 30.0)
           (-30.0 30.0)
  end
  begin
     id 14 
     name lowerneck
     direction -0.0285886 0.99568 0.0883427   
     length 1.81272   
     axis 0 0 0   XYZ
    dof rx ry rz
    limits (-20.0 45.0)
           (-30.0 30.0)
           (-30.0 30.0)
  end
  begin
     id 15 
     name upperneck
     direction 0.0807535 0.97985 -0.18268   
     length 1.82518   
     axis 0 0 0   XYZ
    dof rx ry rz
    limits (-20.0 45.0)
           (-30.0 30.0)
           (-30.0 30.0)
  end
  begin
     id 16
     name head
     direction 0.0236605 0.997053 -0.0729767  
     length 1.84443  
     axis 0 0 0   XYZ
    dof rx ry rz
    limits (-20.0 45.0)
           (-30.0 30.0)
           (-30.0 30.0)
  end
  begin
     id 17 
     name lclavicle
     direction 0.918986 0.39378 -0.0200683  
     length 3.27822  
     axis 0 0 0   XYZ
    dof ry rz
    limits (-20.0 10.0)
           (0.0 20.0)
  end
  begin
     id 18 
     name lhumerus
     direction 1 -4.4897e-011 2.09544e-027   
     length 5.5568   
     axis 180 -30 -90   XYZ
    dof rx ry rz
    limits (-60.0 90.0)
           (-90.0 90.0)
           (-90.0 90.0)
  end
  begin
     id 19
     name lradius
     direction 1 -4.48957e-011 -1.27696e-026   
     length 3.63979   
     axis 180 -30 -90   XYZ
    dof rx
    limits (-10.0 170.0)
  end
  begin
     id 20
     name lwrist
     direction 1 -4.49001e-011 -1.49001e-026   
     length 1.8199   
     axis 9.0955e-015 90 90   XYZ
    dof ry
    limits (-180.0 0.0)
 end
  begin
     id 21 
     name lhand
     direction 1 -4.48709e-011 -2.9758e-026   
     length 0.569419   
     axis 1.90115e-014 90 90   XYZ
    dof rx rz
    limits (-90.0 90.0)
           (-45.0 45.0)
  end
  begin
     id 22 
     name lfingers
     direction 1 -4.49175e-011 -5.96505e-026   
     length 0.45908   
     axis 3.80223e-014 90 90   XYZ
    dof rx
    limits (0.0 90.0)
  end
  begin
     id 23
     name lthumb
     direction 0.707107 -6.34864e-011 0.707107   
     length 0.65915   
     axis -90 45 -3.84942e-014   XYZ
    dof rx rz
    limits (-45.0 45.0)
           (-45.0 45.0)
  end
  begin
     id 24 
     name rclavicle
     direction -0.911913 0.396426 -0.106115   
     length 3.46301  
     axis 0 0 0   XYZ 
    dof ry rz
    limits (-10.0 20.0)
           (-20.0 0.0)
  end
  begin
     id 25 
     name rhumerus
     direction -1 -4.48965e-011 7.78516e-028  
     length 5.34339   
     axis 180 30 90   XYZ
    dof rx ry rz
    limits (-90.0 60.0)
           (-90.0 90.0)
           (-90.0 90.0)
  end
  begin
     id 26 
     name rradius
     direction -1 -4.48948e-011 -5.79823e-027   
     length 3.65101   
     axis 180 30 90   XYZ
    dof rx
    limits (-10.0 170.0)
  end
  begin
     id 27 
     name rwrist
     direction -1 -4.48995e-011 -1.48996e-026   
     length 1.8255   
     axis 9.0955e-015 -90 -90   XYZ
    dof ry
    limits (-180.0 0.0)
  end
  begin
     id 28
     name rhand
     direction -1 -4.48957e-011 -2.97937e-026   
     length 0.694249   
     axis 1.90115e-014 -90 -90   XYZ
    dof rx rz
    limits (-90.0 90.0)
           (-45.0 45.0)
  end
  begin
     id 29
     name rfingers
     direction -1 -4.4898e-011 -5.95943e-026   
     length 0.559721   
     axis 3.80223e-014 -90 -90   XYZ
    dof rx
    limits (0.0 90.0)
  end
  begin
     id 30
     name rthumb
     direction -0.707107 -6.34969e-011 0.707107   
     length 0.803651   
     axis -90 -45 3.84942e-014   XYZ
    dof rx rz
    limits (-45.0 45.0)
           (-45.0 45.0)
  end
:hierarchy
  begin
    root lhipjoint rhipjoint lowerback
    lhipjoint lfemur
    lfemur ltibia
    ltibia lfoot
    lfoot ltoes
    rhipjoint rfemur
    rfemur rtibia
    rtibia rfoot
    rfoot rtoes
    lowerback upperback
    upperback thorax
    thorax lowerneck lclavicle rclavicle
    lowerneck upperneck
    upperneck head
    lclavicle lhumerus
    lhumerus lradius
    lradius lwrist
    lwrist lhand lthumb
    lhand lfingers
    rclavicle rhumerus
    rhumerus rradius
    rradius rwrist
    rwrist rhand rthumb
    rhand rfingers
  end

#!OML:ASF H:\Terrain\Walking\May29\JustinRory\rory.ASF
:FULLY-SPECIFIED
:DEGREES
56
root 11.2893 18.1062 -17.5713 0.155759 58.7304 -2.04661
lowerback -3.35411 -1.58848 -5.85721
upperback 0.292559 -1.85673 -0.556869
thorax 2.35335 -0.991846 2.60618
lowerneck 1.26039 -17.3171 -14.9887
upperneck 29.176 -27.3261 14.2495
head 14.011 -12.5524 4.04355
rclavicle -1.05256e-013 -3.18055e-015
rhumerus -35.1513 -10.8757 -70.493
rradius 45.5892
rwrist -3.43888
rhand -6.36549 40.1031
rfingers 7.12502
rthumb 19.481 11.0591
lclavicle -1.05256e-013 -3.18055e-015
lhumerus -33.2176 6.03584 84.2895
lradius 28.1894
lwrist -2.91485
lhand -21.7354 22.2963
lfingers 7.12502
lthumb 4.6643 52.2249
rfemur -9.95275 15.5589 14.5099
rtibia 23.3114
rfoot -12.9707 -9.13156
rtoes 13.1078
lfemur -1.36923 -6.67136 -16.2685
ltibia 19.3213
lfoot -21.6751 14.2561
ltoes -6.53291
57
root 11.2874 18.1063 -17.5671 0.213447 58.6893 -2.02287
lowerback -3.36288 -1.64265 -5.91661
upperback 0.270322 -1.92605 -0.569488
thorax 2.34313 -1.02617 2.62229
lowerneck 1.64529 -17.2589 -15.0539
upperneck 28.9796 -27.2985 14.463
head 13.8942 -12.5639 4.17628
rclavicle -1.12984e-013 -2.38542e-015
rhumerus -35.3023 -10.2375 -70.4418
rradius 45.5173
rwrist -2.8825
rhand -7.28375 40.6454
rfingers 7.12502
rthumb 18.5979 11.5144
lclavicle -1.12984e-013 -2.38542e-015
lhumerus -33.4112 6.49034 84.1156
lradius 28.1631
lwrist -3.28213
lhand -21.2739 22.4295
lfingers 7.12502
lthumb 5.1099 52.3479
rfemur -9.99308 15.6544 14.5188
rtibia 23.3254
rfoot -12.9261 -9.26302
rtoes 13.0079
lfemur -1.40267 -6.69569 -16.2743
ltibia 19.3194
lfoot -21.7644 14.2934
ltoes -6.33097
58
root 11.2843 18.1058 -17.5667 0.218443 58.6695 -2.0067
lowerback -3.30018 -1.67145 -5.90968
upperback 0.249333 -1.96858 -0.615612
thorax 2.28812 -1.04493 2.57043
lowerneck 1.94815 -17.2653 -15.1402
upperneck 28.885 -27.3625 14.6202
head 13.8515 -12.6122 4.26156
rclavicle 5.2591e-014 8.74653e-015
rhumerus -35.5 -9.78677 -70.4349
rradius 45.5441
rwrist -2.21775
rhand -9.15076 41.343
rfingers 7.12502
rthumb 16.8013 12.0499
lclavicle 5.2591e-014 8.74653e-015
lhumerus -33.5826 6.75199 83.9523
lradius 28.1288
lwrist -3.51631
lhand -22.0254 22.471
lfingers 7.12502
lthumb 4.38424 52.4056
rfemur -9.99433 15.871 14.5148
rtibia 23.3653
rfoot -12.9776 -9.34725
rtoes 13.7239
lfemur -1.36055 -6.87572 -16.2977
ltibia 19.2957
lfoot -21.8898 14.3569
ltoes -5.78575
59
root 11.2788 18.1034 -17.5681 0.239324 58.6438 -1.92423
lowerback -3.15198 -1.70738 -5.93686
upperback 0.248053 -2.02426 -0.679026
thorax 2.20716 -1.07024 2.52126
lowerneck 1.96512 -17.315 -15.1127
upperneck 28.9351 -27.4332 14.556
head 13.8675 -12.6468 4.22003
rclavicle 4.85407e-014 -6.36111e-015
rhumerus -35.619 -9.67322 -70.3572
rradius 45.5626
rwrist -0.646779
rhand -10.7407 42.3351
rfingers 7.12502
rthumb 15.2703 12.9188
lclavicle 4.85407e-014 -6.36111e-015
lhumerus -33.6036 6.75716 83.8069
lradius 28.0246
lwrist -3.45958
lhand -22.6761 22.6453
lfingers 7.12502
lthumb 3.75593 52.592
rfemur -9.99849 15.6223 14.4569
rtibia 23.4091
rfoot -13.0323 -8.96713
rtoes 14.6788
lfemur -1.29206 -7.02196 -16.3452
ltibia 19.2864
lfoot -22.1022 14.2291
ltoes -4.15202
60
root 11.2718 18.1017 -17.5676 0.253523 58.6019 -1.86039
lowerback -3.02358 -1.71597 -5.99812
upperback 0.282157 -2.04073 -0.704203
thorax 2.17306 -1.07874 2.53169
lowerneck 1.87388 -17.3954 -14.9566
upperneck 28.906 -27.5069 14.4147
head 13.8309 -12.6734 4.12197
rclavicle -2.68111e-014 3.97569e-015
rhumerus -35.7439 -9.86715 -70.1103
rradius 45.6849
rwrist 1.19187
rhand -11.7177 43.3786
rfingers 7.12502
rthumb 14.329 13.8931
lclavicle -2.68111e-014 3.97569e-015
lhumerus -33.5327 6.84664 83.7117
lradius 27.8552
lwrist -3.96468
lhand -22.0544 22.4911
lfingers 7.12502
lthumb 4.35621 52.4263
rfemur -10.0412 15.1936 14.4314
rtibia 23.4504
rfoot -12.9526 -8.60971
rtoes 14.3518
lfemur -1.26608 -7.04351 -16.3709
ltibia 19.2906
lfoot -22.2323 14.1585
ltoes -3.50243
61
root 11.263 18.1023 -17.5675 0.161826 58.5041 -1.8548
lowerback -2.82507 -1.68529 -6.06008
upperback 0.34069 -2.01082 -0.680609
thorax 2.12245 -1.06477 2.59701
lowerneck 1.87849 -17.4748 -14.8499
upperneck 28.7105 -27.5934 14.4001
head 13.7371 -12.7132 4.08312
rclavicle -1.41634e-014 1.59028e-014
rhumerus -35.8472 -9.94916 -69.7922
rradius 45.8607
rwrist 2.57977
rhand -12.6382 44.4016
rfingers 7.12502
rthumb 13.4419 14.8553
lclavicle -1.41634e-014 1.59028e-014
lhumerus -33.3681 9.36884 82.0817
lradius 26.9509
lwrist -10.8044
lhand -14.028 17.0199
lfingers 7.12502
lthumb 12.1021 46.6499
rfemur -10.0305 15.2474 14.4745
rtibia 23.5192
rfoot -12.8917 -8.61059
rtoes 13.8207
lfemur -1.18265 -6.86312 -16.377
ltibia 19.2698
lfoot -21.9651 14.4584
ltoes -5.54163
62
root 11.2553 18.1018 -17.5686 -0.0291628 58.3821 -1.93935
lowerback -2.59152 -1.65125 -6.08001
upperback 0.373071 -1.98245 -0.631134
thorax 2.02453 -1.04955 2.66686
lowerneck 1.91873 -17.5332 -14.8453
upperneck 28.5657 -27.6522 14.3745
head 13.6697 -12.7515 4.0622
rclavicle 2.86498e-014 2.3059e-014
rhumerus -35.9297 -9.87823 -69.4436
rradius 46.011
rwrist 3.96859
rhand -13.5664 45.3767
rfingers 7.12502
rthumb 12.5472 15.7735
lclavicle 2.86498e-014 2.3059e-014
lhumerus -33.3267 6.8038 83.8434
lradius 27.4703
lwrist -3.92519
lhand -21.5 22.9731
lfingers 7.12502
lthumb 4.89154 52.8966
rfemur -10.0085 15.1504 14.5504
rtibia 23.6014
rfoot -12.8874 -8.38263
rtoes 13.6077
lfemur -1.05206 -6.81574 -16.3426
ltibia 19.2276
lfoot -21.8679 14.654
ltoes -6.27685
63
root 11.2505 18.1007 -17.5673 0.0616795 58.2321 -1.82149
lowerback -2.54461 -1.60977 -6.17913
upperback 0.376515 -1.92662 -0.652367
thorax 1.99932 -1.02193 2.70436
lowerneck 1.9403 -17.5572 -14.9192
upperneck 28.5221 -27.6913 14.405
head 13.6728 -12.7773 4.07442
rclavicle -2.5109e-014 -1.43125e-014
rhumerus -35.9987 -9.89783 -69.1262
rradius 46.1447
rwrist 5.09875
rhand -14.0189 45.8364
rfingers 7.12502
rthumb 12.1109 16.2069
lclavicle -2.5109e-014 -1.43125e-014
lhumerus -33.269 8.96353 82.5093
lradius 26.7495
lwrist -8.50559
lhand -16.5722 18.8621
lfingers 7.12502
lthumb 9.64813 48.6212
rfemur -10.095 14.8555 14.4713
rtibia 23.6601
rfoot -12.8577 -7.98552
rtoes 13.8406
lfemur -1.01615 -6.8118 -16.4096
ltibia 19.1988
lfoot -22.0415 14.6056
ltoes -5.1443
64
root 11.2461 18.1023 -17.5646 0.322339 58.0757 -1.51325
lowerback -2.53974 -1.61186 -6.41784
upperback 0.401303 -1.91947 -0.691573
thorax 2.02858 -1.02176 2.79713
lowerneck 2.08715 -17.5339 -14.988
upperneck 28.306 -27.6836 14.5763
head 13.5926 -12.7872 4.16098
rclavicle -1.94312e-014 1.03368e-014
rhumerus -35.9669 -9.87101 -68.9037
rradius 46.3718
rwrist 5.48716
rhand -14.1268 45.6941
rfingers 7.12502
rthumb 12.0068 16.0585
lclavicle -1.94312e-014 1.03368e-014
lhumerus -33.2744 9.77569 81.9494
lradius 26.5451
lwrist -10.0183
lhand -14.8645 17.9013
lfingers 7.12502
lthumb 11.2955 47.5771
rfemur -10.1628 14.8367 14.298
rtibia 23.7106
rfoot -12.8388 -7.84001
rtoes 14.1803
lfemur -0.963662 -6.69294 -16.5752
ltibia 19.1682
lfoot -22.107 14.5949
ltoes -4.85617
65
root 11.2414 18.1029 -17.5664 0.408374 57.973 -1.39071
lowerback -2.42695 -1.64616 -6.54109
upperback 0.382364 -1.97112 -0.678556
thorax 1.95545 -1.04638 2.88034
lowerneck 2.24411 -17.4756 -15.0941
upperneck 28.1323 -27.6265 14.7363
head 13.5238 -12.7783 4.26007
rclavicle -7.606e-014 2.46493e-014
rhumerus -35.9926 -9.82075 -68.6382
rradius 46.7203
rwrist 5.55072
rhand -14.1719 45.8328
rfingers 7.12502
rthumb 11.9634 16.1947
lclavicle -7.606e-014 2.46493e-014
lhumerus -33.3903 9.8571 81.9445
lradius 26.5825
lwrist -9.77189
lhand -15.2674 18.7768
lfingers 7.12502
lthumb 10.9069 48.4735
rfemur -10.2068 15.02 14.2352
rtibia 23.7792
rfoot -12.8699 -7.93667
rtoes 14.2797
lfemur -0.897203 -6.53838 -16.6365
ltibia 19.1096
lfoot -22.0061 14.6193
ltoes -5.27667
66
root 11.2354 18.1035 -17.5698 0.624422 57.835 -1.32057
lowerback -2.45473 -1.65332 -6.5635
upperback 0.298468 -1.98118 -0.678164
thorax 1.88605 -1.04763 2.89352
lowerneck 2.24127 -17.4718 -15.1114
upperneck 28.0986 -27.6033 14.692
head 13.4985 -12.7762 4.24976
rclavicle -5.81321e-014 -1.59028e-014
rhumerus -36.0384 -9.94634 -68.2999
rradius 46.9796
rwrist 5.62789
rhand -14.1623 46.4527
rfingers 7.12502
rthumb 11.9726 16.8152
lclavicle -5.81321e-014 -1.59028e-014
lhumerus -33.4358 8.71975 82.627
lradius 26.7259
lwrist -7.15298
lhand -18.33 20.8288
lfingers 7.12502
lthumb 7.95184 50.6592
rfemur -10.4518 15.4128 14.1506
rtibia 23.8377
rfoot -12.8925 -8.26482
rtoes 13.989
lfemur -1.06206 -6.28306 -16.6452
ltibia 19.0677
lfoot -21.718 14.7418
ltoes -6.28352
